<svg xmlns="http://www.w3.org/2000/svg" viewBox="0 0 127.87 77.6"><defs><style>.cls-1{fill:#fff;}.cls-2{fill:#121722;}.cls-3{fill:#ffce32;}.cls-4{fill:#1d63ff;}</style></defs><g id="Calque_2" data-name="Calque 2"><g id="interface"><g id="logo2_alpha" data-name="logo2 alpha"><g id="logo_2" data-name="logo 2"><path class="cls-1" d="M57.26,23.25C52.76,19.54,47.87,11,46.35,8l-4-8s-1.94,5.43-3.38,8.33C30.12,26.2,15.51,32.57,8.17,35.51A76,76,0,0,1,0,38.16c13.64,4.35,22.61,17,18.67,33.57H70.78A48,48,0,0,0,82.36,73.2l1.17,0a47.93,47.93,0,0,0,29.43-10,28.58,28.58,0,0,1,.88,3.57,48.14,48.14,0,0,1,.77,6.45l.16,4.36h12.85V73.09l.22-53.41,0-4.54h-12l-.21,4.31c-.31,6.65-1.68,10.74-2.84,13.08A48,48,0,0,0,84.09,22l-.92,0a52.5,52.5,0,0,0-21.69,4.7c-.18-.15-.29-.26-.34-.31"/><g id="logo"><path class="cls-2" d="M42.81,63.89a5.34,5.34,0,0,1,5.38,3.47H62a38.13,38.13,0,0,1,1.37-12.68c-5.84-1.28-6.84-3.19-6.84-3.19,1.64-1.73,7.48.73,7.48.73,1.82-6.38,11.94-13.77,11.94-13.77C62.42,33.52,58.31,29,58.31,29,57,30.34,53,33.52,53,33.52c-1.18-1.46,2.19-7,2.19-7-6.38-5-12.4-17-12.4-17s-6,12-12.4,17c0,0,3.37,5.56,2.19,7,0,0-4-3.18-5.29-4.55,0,0-4.11,4.55-17.6,9.48,0,0,10.12,7.39,11.94,13.77,0,0,5.84-2.46,7.48-.73,0,0-1,1.91-6.84,3.19a38.44,38.44,0,0,1,1.37,12.68H37.43A5.33,5.33,0,0,1,42.81,63.89Z"/><path class="cls-3" d="M42.81,59.57c4.79-.16,7.76,4.1,7.76,4.1l7.76-.55a18,18,0,0,1,.54-6.61c-10.48-5.84-9.23-6.88-9.23-6.88,8.63-3.66,12.62-2.07,12.62-2.07.92-2.84,5.68-8.36,5.68-8.36-4.15-1.25-9.45-5.35-9.45-5.35-8,4.75-9,3.5-9,3.5C49.26,28.07,51,26.54,51,26.54c-3.93-3.28-8.2-11.36-8.2-11.36s-4.27,8.08-8.2,11.36c0,0,1.75,1.53,1.47,10.81,0,0-1,1.25-8.95-3.5,0,0-5.3,4.1-9.45,5.35,0,0,4.75,5.52,5.68,8.36,0,0,4-1.59,12.61,2.07,0,0,1.26,1-9.22,6.88a18,18,0,0,1,.54,6.61l7.76.55S38,59.41,42.81,59.57Z"/><polygon class="cls-2" points="42.2 66.89 43.89 66.89 43.89 14.52 41.83 14.52 42.2 66.89"/><path class="cls-2" d="M113.89,38.45c.35.32,6.12-4.38,6.83-19.28h3.11l-.22,54.05h-4s-.49-13.43-5.24-16.76c0,0-10.81,12.34-30.46,12.34,0,0-25.23,1.58-39-21.24,0,0,10.54-21.3,38.88-21.51C83.81,26.05,99.64,25,113.89,38.45Z"/><path class="cls-4" d="M119,40.71V54.06s-2.67-5.52-4.69-5.63c0,0-11.8,15.73-30.36,14.74,0,0-18.46,1.59-32.22-15.39,0,0,12.51-17.26,31.89-16.11,0,0,17.86-.49,30,14.52C113.67,46.19,115.75,46.14,119,40.71Z"/><ellipse class="cls-2" cx="74.36" cy="45.7" rx="3.06" ry="2.89"/><path class="cls-2" d="M81,51.11l.71,2.18L52.68,52.2a17.06,17.06,0,0,1-1.8-2.4Z"/></g></g></g></g></g></svg>