<svg xmlns="http://www.w3.org/2000/svg" viewBox="0 0 378.57 211.24"><defs><style>.cls-1{fill:#121722;}.cls-2{fill:#ffce32;}.cls-3{fill:#1d63ff;}</style></defs><g id="Calque_2" data-name="Calque 2"><g id="Calque_1-2" data-name="Calque 1"><g id="logo"><path class="cls-1" d="M109.81,180.3a17.68,17.68,0,0,1,17.85,11.49h45.68a126.93,126.93,0,0,1,4.54-42c-19.36-4.23-22.69-10.59-22.69-10.59,5.44-5.74,24.8,2.42,24.8,2.42,6-21.17,39.63-45.67,39.63-45.67-44.77-16.34-58.38-31.43-58.38-31.43C157,69,143.69,79.56,143.69,79.56,139.76,74.72,151,56.27,151,56.27,129.78,39.63,109.81,0,109.81,0s-20,39.63-41.14,56.27c0,0,11.19,18.45,7.26,23.29,0,0-13.31-10.55-17.55-15.09,0,0-13.61,15.09-58.38,31.43,0,0,33.58,24.5,39.63,45.67,0,0,19.36-8.16,24.8-2.42,0,0-3.32,6.36-22.68,10.59a126.77,126.77,0,0,1,4.53,42H92A17.7,17.7,0,0,1,109.81,180.3Z"/><path class="cls-2" d="M109.81,166c15.91-.54,25.75,13.59,25.75,13.59l25.72-1.81c-1.45-11.05,1.81-21.92,1.81-21.92C128.32,136.44,132.48,133,132.48,133c28.62-12.14,41.84-6.89,41.84-6.89,3.08-9.41,18.84-27.71,18.84-27.71-13.77-4.16-31.34-17.75-31.34-17.75-26.44,15.76-29.7,11.59-29.7,11.59C131.21,61.45,137,56.38,137,56.38c-13-10.87-27.2-37.67-27.2-37.67s-14.16,26.8-27.2,37.67c0,0,5.8,5.07,4.89,35.86,0,0-3.26,4.17-29.7-11.59,0,0-17.57,13.59-31.34,17.75,0,0,15.76,18.3,18.84,27.71,0,0,13.22-5.25,41.84,6.89,0,0,4.17,3.44-30.61,22.82,0,0,3.26,10.87,1.81,21.92l25.72,1.81S93.9,165.42,109.81,166Z"/><polygon class="cls-1" points="107.79 190.23 113.4 190.23 113.4 16.53 106.56 16.53 107.79 190.23"/><path class="cls-1" d="M345.6,95.9c1.15,1.08,20.29-14.52,22.65-64h10.32l-.73,179.31H364.62s-1.63-44.55-17.39-55.6c0,0-35.86,40.93-101.06,40.93,0,0-83.68,5.25-129.33-70.46,0,0,35-70.63,129-71.36C245.81,54.75,298.33,51.37,345.6,95.9Z"/><path class="cls-3" d="M362.63,103.38v44.29s-8.87-18.29-15.58-18.66c0,0-39.12,52.17-100.7,48.91,0,0-61.22,5.25-106.87-51.08,0,0,41.48-57.24,105.78-53.43,0,0,59.23-1.63,99.62,48.18C344.88,121.59,351.76,121.41,362.63,103.38Z"/><ellipse class="cls-1" cx="214.47" cy="119.96" rx="10.14" ry="9.6"/><path class="cls-1" d="M236.57,137.89l2.35,7.24-96.36-3.62s-6.7-8-6-8S236.57,137.89,236.57,137.89Z"/></g></g></g></svg>