<?xml version="1.0" standalone="no"?>
<!DOCTYPE svg PUBLIC "-//W3C//DTD SVG 20010904//EN"
 "http://www.w3.org/TR/2001/REC-SVG-20010904/DTD/svg10.dtd">
<svg version="1.0" xmlns="http://www.w3.org/2000/svg"
 width="700.000000pt" height="700.000000pt" viewBox="0 0 700.000000 700.000000"
 preserveAspectRatio="xMidYMid meet">
<metadata>
Created by potrace 1.14, written by Peter Selinger 2001-2017
</metadata>
<g transform="translate(0.000000,700.000000) scale(0.100000,-0.100000)"
fill="#000000" stroke="none">
<path d="M2011 5203 c-13 -21 -26 -45 -31 -53 -5 -8 -21 -37 -36 -65 -15 -27
-61 -104 -102 -170 -143 -227 -246 -360 -387 -502 l-100 -102 18 -33 c10 -18
23 -42 30 -53 6 -11 12 -22 12 -25 1 -3 11 -26 23 -52 25 -56 49 -137 47 -158
-1 -8 -3 -23 -3 -32 -2 -18 -27 -25 -34 -10 -1 4 -23 23 -48 42 -25 19 -47 37
-50 40 -3 3 -42 37 -86 77 l-82 72 -23 -21 c-158 -140 -480 -317 -804 -443
-60 -23 -116 -45 -124 -47 -8 -2 29 -39 92 -91 117 -97 290 -264 352 -342 22
-27 43 -52 46 -55 19 -15 109 -165 129 -214 17 -43 27 -56 39 -52 143 48 193
59 273 60 69 1 91 -2 104 -16 16 -15 15 -18 -10 -41 -52 -48 -258 -137 -318
-137 -26 0 -30 -15 -17 -62 6 -24 12 -50 14 -58 38 -200 47 -285 49 -465 l1
-120 374 0 373 0 33 51 c18 28 49 64 68 78 40 30 134 66 154 59 9 -4 13 -28
13 -85 l0 -79 47 3 46 3 0 78 c-1 89 2 91 82 53 61 -30 106 -70 130 -116 10
-19 21 -37 25 -40 5 -3 176 -5 381 -5 l373 0 -3 104 c-1 57 1 101 6 98 23 -14
176 -82 233 -103 166 -63 274 -95 440 -128 133 -26 165 -31 300 -42 133 -12
436 -6 530 10 14 3 59 10 100 16 430 65 897 289 1197 574 78 73 83 74 121 24
7 -9 19 -24 27 -32 36 -35 117 -228 140 -331 1 -5 5 -21 8 -35 21 -78 50 -284
62 -435 2 -16 3 -33 4 -36 0 -3 49 -5 109 -5 l107 1 2 305 c1 168 4 835 6
1483 l4 1177 -84 -1 c-45 -1 -83 -4 -84 -8 0 -3 -2 -22 -4 -41 -11 -145 -23
-235 -42 -340 -38 -212 -140 -466 -231 -578 -36 -46 -83 -92 -92 -92 -3 0 -23
16 -45 36 -218 194 -494 370 -730 464 -44 18 -89 36 -100 41 -23 10 -181 60
-198 63 -7 1 -21 5 -32 9 -11 3 -31 8 -45 11 -14 3 -59 12 -100 20 -71 14 -94
17 -210 32 -25 3 -103 5 -175 5 -184 -1 -314 -11 -460 -36 -16 -3 -48 -8 -70
-11 -165 -24 -477 -129 -652 -220 l-62 -32 -38 26 c-21 14 -61 45 -89 69 l-51
43 -25 -25 c-13 -13 -78 -69 -143 -124 -82 -68 -122 -96 -127 -88 -22 35 17
173 87 301 l37 69 -68 67 c-97 94 -141 143 -216 240 -75 97 -214 304 -254 375
-17 33 -106 188 -124 218 l-17 29 -22 -39z m-25 -1149 c12 -1741 13 -1554 -10
-1555 -12 -1 -24 -1 -28 0 -15 2 -125 -41 -167 -66 -25 -14 -76 -55 -113 -91
l-67 -64 -73 5 c-40 4 -122 9 -183 13 -60 4 -117 8 -125 10 -8 1 -19 3 -25 3
-6 1 -10 39 -11 94 0 97 -9 185 -23 235 -9 30 -9 30 97 92 230 135 402 265
402 304 0 13 -99 54 -215 90 -149 46 -326 66 -423 48 l-53 -9 -26 51 c-44 87
-149 238 -250 360 -32 38 -43 64 -24 51 5 -3 12 -1 16 5 3 5 13 10 22 10 36 0
213 99 390 218 l81 54 60 -36 c145 -88 349 -170 399 -161 10 2 21 4 24 4 7 1
3 244 -5 336 -7 75 -28 165 -52 225 l-15 38 48 48 c27 27 74 81 106 121 64 80
213 305 223 335 3 11 8 18 10 15 3 -2 7 -355 10 -783z m156 696 c47 -88 186
-276 275 -371 l63 -66 -20 -40 c-34 -71 -53 -205 -54 -388 l-1 -170 42 2 c54
4 132 30 238 80 6 3 -10 -12 -35 -34 -79 -67 -243 -236 -307 -316 -60 -74
-193 -269 -193 -282 0 -15 111 -178 181 -265 134 -168 338 -360 495 -465 48
-32 52 -38 56 -80 2 -25 -1 -46 -7 -47 -21 -3 -177 -14 -320 -23 l-90 -6 -71
68 c-82 79 -193 140 -269 148 -11 1 -23 3 -26 4 -4 0 -7 524 -7 1163 0 1133 1
1161 19 1137 10 -13 24 -35 31 -49z m1716 -1357 c15 -11 38 -35 50 -54 20 -28
23 -44 20 -92 -10 -139 -148 -204 -264 -125 -99 68 -82 232 31 284 41 20 129
13 163 -13z m-1098 -368 c69 -3 184 -8 255 -10 121 -5 184 -8 440 -20 55 -2
170 -7 255 -11 85 -3 182 -7 215 -9 33 -1 92 -4 132 -5 l72 -3 20 -59 20 -60
-197 6 c-108 4 -235 9 -282 11 -47 2 -166 7 -265 10 -99 4 -218 8 -265 10 -47
2 -168 6 -270 10 -167 6 -254 10 -302 14 -15 1 -108 107 -108 123 0 4 35 6 78
3 42 -2 133 -7 202 -10z"/>
</g>
</svg>
